<svg xmlns="http://www.w3.org/2000/svg" viewBox="0 0 21.4026 17.4969" role="img" aria-label="point.3.connected.trianglepath.dotted"><path fill="currentColor" fill-rule="nonzero" d="M3.3087 6.628 C5.1478 6.628 6.6366 5.1497 6.6366 3.3087 C6.6366 1.4888 5.1478 0 3.3087 0 C1.4888 0 0 1.4888 0 3.3087 C0 5.1497 1.4888 6.628 3.3087 6.628 Z M3.3087 4.8393 C2.4676 4.8393 1.7887 4.1688 1.7887 3.3087 C1.7887 2.4484 2.4674 1.7906 3.3087 1.7906 C4.1796 1.7906 4.8393 2.4464 4.8393 3.3087 C4.8393 4.1708 4.1794 4.8393 3.3087 4.8393 Z M18.0768 6.628 C19.9138 6.628 21.4026 5.1497 21.4026 3.3087 C21.4026 1.4888 19.9138 0 18.0768 0 C16.2529 0 14.766 1.4888 14.766 3.3087 C14.766 5.1497 16.2529 6.628 18.0768 6.628 Z M18.0768 4.8393 C17.2336 4.8393 16.5547 4.1708 16.5547 3.3087 C16.5547 2.4464 17.2315 1.7906 18.0768 1.7906 C18.9456 1.7906 19.6053 2.4484 19.6053 3.3087 C19.6053 4.1688 18.9454 4.8393 18.0768 4.8393 Z M10.697 17.4969 C12.5341 17.4969 14.0228 16.0185 14.0228 14.1775 C14.0228 12.349 12.5341 10.8707 10.697 10.8707 C8.875 10.8707 7.3862 12.349 7.3862 14.1775 C7.3862 16.0185 8.875 17.4969 10.697 17.4969 Z M10.697 15.7081 C9.8538 15.7081 9.175 15.0397 9.175 14.1775 C9.175 13.3152 9.8536 12.6594 10.697 12.6594 C11.5659 12.6594 12.2255 13.3173 12.2255 14.1775 C12.2255 15.0376 11.5656 15.7081 10.697 15.7081 Z M8.2417 4.1784 C8.7048 4.1784 9.086 3.7905 9.086 3.3237 C9.086 2.8606 8.7048 2.4794 8.2417 2.4794 C7.7767 2.4794 7.3955 2.8606 7.3955 3.3237 C7.3955 3.7905 7.7767 4.1784 8.2417 4.1784 Z M10.697 4.1784 C11.1638 4.1784 11.5517 3.7905 11.5517 3.3237 C11.5517 2.8606 11.1638 2.4794 10.697 2.4794 C10.2321 2.4794 9.8527 2.8606 9.8527 3.3237 C9.8527 3.7905 10.2321 4.1784 10.697 4.1784 Z M13.1609 4.1784 C13.6258 4.1784 14.0052 3.7905 14.0052 3.3237 C14.0052 2.8606 13.6258 2.4794 13.1609 2.4794 C12.6978 2.4794 12.3148 2.8606 12.3148 3.3237 C12.3148 3.7905 12.6978 4.1784 13.1609 4.1784 Z M15.5459 8.6506 C16.0127 8.6506 16.3921 8.2712 16.3921 7.8063 C16.3921 7.3413 16.0127 6.9601 15.5459 6.9601 C15.081 6.9601 14.7016 7.3413 14.7016 7.8063 C14.7016 8.2712 15.081 8.6506 15.5459 8.6506 Z M13.702 10.6835 C14.1688 10.6835 14.5481 10.3041 14.5481 9.8392 C14.5481 9.3743 14.1688 8.993 13.702 8.993 C13.237 8.993 12.8577 9.3743 12.8577 9.8392 C12.8577 10.3041 13.237 10.6835 13.702 10.6835 Z M7.6884 10.6835 C8.1551 10.6835 8.5345 10.3041 8.5345 9.8392 C8.5345 9.3743 8.1551 8.993 7.6884 8.993 C7.2234 8.993 6.8441 9.3743 6.8441 9.8392 C6.8441 10.3041 7.2234 10.6835 7.6884 10.6835 Z M5.8444 8.6506 C6.3112 8.6506 6.6905 8.2712 6.6905 7.8063 C6.6905 7.3413 6.3112 6.9601 5.8444 6.9601 C5.3795 6.9601 5.0001 7.3413 5.0001 7.8063 C5.0001 8.2712 5.3795 8.6506 5.8444 8.6506 Z"/></svg>
